<svg width="97" height="97" xmlns="http://www.w3.org/2000/svg" xmlns:xlink="http://www.w3.org/1999/xlink" xml:space="preserve" overflow="hidden"><defs><clipPath id="clip0"><rect x="909" y="365" width="97" height="97"/></clipPath><clipPath id="clip1"><rect x="910" y="366" width="96" height="96"/></clipPath><clipPath id="clip2"><rect x="910" y="366" width="96" height="96"/></clipPath><clipPath id="clip3"><rect x="910" y="366" width="96" height="96"/></clipPath></defs><g clip-path="url(#clip0)" transform="translate(-909 -365)"><g clip-path="url(#clip1)"><g clip-path="url(#clip2)"><g clip-path="url(#clip3)"><path d="M984.4 439.3 966.4 433.1 966.3 433.1 959.1 430.6 992.8 386.1 984.4 439.3ZM961.9 435.9 955.3 442.5 957.1 434.3 961.9 435.9ZM953.9 430.8C953.7 431 953.6 431.3 953.5 431.6L953.2 432.9 951.2 442 946.4 428 983.8 392 955.1 429.3 953.9 430.8ZM925 419 983.6 387.8 943.5 425.3 925 419ZM997.2 377.4C996.6 376.9 995.7 376.9 995 377.3L919.1 417.6C918.4 418 918 418.7 918 419.5 918 420.3 918.6 421 919.3 421.2L940.1 428.3 942.7 429.2 943.3 430.9 949.5 449.5 949.5 449.6 949.5 449.7C949.7 450.3 950.3 450.8 951 451 951.7 451.2 952.4 451 952.9 450.5L953 450.4 953.6 449.8 966.2 437.4 985.4 444C986 444.2 986.6 444.1 987.1 443.8 987.6 443.5 988 443 988.1 442.4L998.1 379.4C998.2 378.5 997.8 377.8 997.2 377.4Z" stroke="#000000" stroke-width="0.333333" stroke-linecap="butt" stroke-linejoin="miter" stroke-miterlimit="4" stroke-opacity="1" fill="#000000" fill-rule="nonzero" fill-opacity="1"/></g></g></g></g></svg>