<svg width="97" height="97" xmlns="http://www.w3.org/2000/svg" xmlns:xlink="http://www.w3.org/1999/xlink" xml:space="preserve" overflow="hidden"><defs><clipPath id="clip0"><rect x="273" y="365" width="97" height="97"/></clipPath><clipPath id="clip1"><rect x="274" y="366" width="96" height="96"/></clipPath><clipPath id="clip2"><rect x="274" y="366" width="96" height="96"/></clipPath><clipPath id="clip3"><rect x="274" y="366" width="96" height="96"/></clipPath></defs><g clip-path="url(#clip0)" transform="translate(-273 -365)"><g clip-path="url(#clip1)"><g clip-path="url(#clip2)"><g clip-path="url(#clip3)"><path d="M334.146 424.939C332.99 423.762 331.098 423.745 329.921 424.901 329.908 424.914 329.895 424.926 329.883 424.939L324.8 430.234C324.223 430.784 323.315 430.784 322.737 430.234L305.682 413.248C305.132 412.671 305.132 411.763 305.682 411.185L310.976 405.958C312.153 404.802 312.17 402.91 311.013 401.732 311.001 401.72 310.989 401.707 310.976 401.695L301.488 392.273C300.943 391.717 300.203 391.396 299.425 391.379 298.627 391.396 297.865 391.715 297.294 392.273L291.862 397.706C290.493 398.972 289.678 400.726 289.593 402.589 289.497 405.646 290.035 408.69 291.175 411.529 292.306 414.067 293.688 416.486 295.3 418.75 300.904 427.194 308.012 434.537 316.27 440.412 317.645 441.433 319.092 442.352 320.6 443.163 324.016 444.96 327.755 446.058 331.6 446.395 331.82 446.413 332.041 446.421 332.26 446.421 334.671 446.413 336.97 445.408 338.613 443.644L343.563 438.693C344.132 438.129 344.454 437.362 344.457 436.561 344.479 435.768 344.182 435 343.632 434.429ZM298.708 393.687C298.904 393.504 299.158 393.395 299.425 393.379 299.674 393.398 299.908 393.51 300.079 393.692L309.561 403.108C309.958 403.483 309.975 404.109 309.599 404.506 309.59 404.516 309.581 404.526 309.571 404.535L307.854 406.235 297.01 395.387ZM337.2 442.23 337.174 442.256 337.148 442.283C335.886 443.642 334.116 444.417 332.261 444.421 332.094 444.421 331.926 444.415 331.741 444.4 328.17 444.085 324.698 443.062 321.527 441.39 320.114 440.629 318.758 439.768 317.469 438.812L317.447 438.796 317.425 438.78C309.353 433.042 302.408 425.864 296.941 417.606 295.418 415.47 294.112 413.188 293.041 410.794 292.02 408.228 291.528 405.483 291.594 402.722L291.594 402.692 291.594 402.663C291.662 401.323 292.254 400.063 293.242 399.156L293.261 399.138 293.279 399.12 295.6 396.8 306.431 407.635 304.267 409.771C302.937 411.131 302.937 413.305 304.267 414.665L321.318 431.648C322.688 432.991 324.884 432.978 326.238 431.62L328.285 429.489 339.113 440.318ZM342.15 437.279 340.527 438.9 329.67 428.047 331.3 426.353C331.676 425.957 332.302 425.941 332.698 426.317 332.71 426.329 332.722 426.341 332.734 426.353L342.222 435.844C342.566 436.271 342.536 436.887 342.153 437.279Z" stroke="#000000" stroke-width="1.33333" stroke-linecap="butt" stroke-linejoin="miter" stroke-miterlimit="4" stroke-opacity="1" fill="#000000" fill-rule="nonzero" fill-opacity="1"/><path d="M345.7 391.757C339.294 385.309 330.516 381.783 321.43 382.007L321.471 384.007C338.761 383.636 353.079 397.351 353.45 414.642 353.46 415.09 353.46 415.539 353.45 415.987L355.45 416.028C355.675 406.941 352.149 398.163 345.7 391.757Z" stroke="#000000" stroke-width="1.33333" stroke-linecap="butt" stroke-linejoin="miter" stroke-miterlimit="4" stroke-opacity="1" fill="#000000" fill-rule="nonzero" fill-opacity="1"/><path d="M321.422 392.471 321.483 394.471C332.999 394.11 342.628 403.152 342.989 414.668 343.003 415.104 343.003 415.54 342.989 415.976L344.989 416.037C345.383 403.416 335.471 392.865 322.849 392.471 322.374 392.456 321.898 392.456 321.422 392.471Z" stroke="#000000" stroke-width="1.33333" stroke-linecap="butt" stroke-linejoin="miter" stroke-miterlimit="4" stroke-opacity="1" fill="#000000" fill-rule="nonzero" fill-opacity="1"/><path d="M334.506 416.065C334.924 409.241 329.731 403.37 322.907 402.952 322.403 402.921 321.898 402.921 321.394 402.952L321.511 404.952C327.233 404.599 332.158 408.951 332.511 414.672 332.537 415.099 332.537 415.526 332.511 415.952Z" stroke="#000000" stroke-width="1.33333" stroke-linecap="butt" stroke-linejoin="miter" stroke-miterlimit="4" stroke-opacity="1" fill="#000000" fill-rule="nonzero" fill-opacity="1"/></g></g></g></g></svg>